<svg id="visual" viewBox="0 0 900 600" width="900" height="600" xmlns="http://www.w3.org/2000/svg" xmlns:xlink="http://www.w3.org/1999/xlink" version="1.1"><rect x="0" y="0" width="900" height="600" fill="#f8f8f8"></rect><path d="M0 465L129 414L257 459L386 420L514 407L643 430L771 464L900 459L900 601L771 601L643 601L514 601L386 601L257 601L129 601L0 601Z" fill="#f5730a"></path><path d="M0 490L129 439L257 490L386 477L514 435L643 452L771 484L900 458L900 601L771 601L643 601L514 601L386 601L257 601L129 601L0 601Z" fill="#e34661"></path><path d="M0 491L129 522L257 494L386 479L514 520L643 520L771 483L900 486L900 601L771 601L643 601L514 601L386 601L257 601L129 601L0 601Z" fill="#a24885"></path><path d="M0 510L129 539L257 535L386 508L514 522L643 534L771 520L900 529L900 601L771 601L643 601L514 601L386 601L257 601L129 601L0 601Z" fill="#554b7c"></path><path d="M0 577L129 571L257 564L386 570L514 566L643 548L771 558L900 573L900 601L771 601L643 601L514 601L386 601L257 601L129 601L0 601Z" fill="#2c3e50"></path></svg>